<svg width="57" height="56" viewBox="0 0 57 56" fill="none" xmlns="http://www.w3.org/2000/svg">
<path d="M53.3683 0.18573H11.8013C10.3314 0.18573 8.92173 0.769645 7.88235 1.80902C6.84297 2.8484 6.25906 4.25809 6.25906 5.72799V14.0414H0.716797V19.5836H6.25906V25.1259H0.716797V30.6682H6.25906V36.2104H0.716797V41.7527H6.25906V50.0661C6.25906 51.536 6.84297 52.9457 7.88235 53.9851C8.92173 55.0244 10.3314 55.6084 11.8013 55.6084H53.3683C54.1032 55.6084 54.8081 55.3164 55.3278 54.7967C55.8475 54.277 56.1394 53.5722 56.1394 52.8372V2.95686C56.1394 2.22191 55.8475 1.51706 55.3278 0.997375C54.8081 0.477687 54.1032 0.18573 53.3683 0.18573ZM31.1992 8.49635C35.7661 8.49635 39.5126 12.2402 39.5126 16.8097C39.5046 19.0124 38.6262 21.1225 37.069 22.6803C35.5117 24.2381 33.4019 25.1171 31.1992 25.1259C26.6352 25.1259 22.8858 21.3766 22.8858 16.8097C22.8858 12.2402 26.6352 8.49635 31.1992 8.49635ZM47.826 44.5238H14.5725V42.4455C14.5725 36.2963 22.0684 29.9754 31.1992 29.9754C40.3301 29.9754 47.826 36.2963 47.826 42.4455V44.5238Z" fill="white"/>
</svg>
